<?xml version="1.0" encoding="utf-8"?>
<!-- Generator: Adobe Illustrator 18.0.0, SVG Export Plug-In . SVG Version: 6.00 Build 0)  -->
<!DOCTYPE svg PUBLIC "-//W3C//DTD SVG 1.1//EN" "http://www.w3.org/Graphics/SVG/1.1/DTD/svg11.dtd">
<svg version="1.1" id="Layer_1" xmlns="http://www.w3.org/2000/svg" xmlns:xlink="http://www.w3.org/1999/xlink" x="0px" y="0px"
	 viewBox="0 0 48 48" enable-background="new 0 0 48 48" xml:space="preserve">
<g>
	<path fill="#032828" d="M10.8,9.7c0,0-4.3,0.7-4.2,5.6c0,0-2.2,1.4-2.2,4c0,0,0,1.9,1.4,3.2c0,0-0.2,4.5,4.6,6.2L11,29l1.2-0.6
		c0,0-4.8-0.3-5.6-5.2c0,0,0.8,0.8,3.4,0.7H14v-0.7h-4c0,0-4.7,0.3-4.9-4.1c0,0,0.2-3.6,3.8-3.8h1.7v-0.7H9.5c0,0-1.4,0-2.1,0.3
		c0,0-0.4-4,4.4-4.9l0.9-0.1L10.8,9.7z"/>
	<circle fill="#FFFFFF" cx="18.2" cy="24.3" r="0.5"/>
	<circle fill="#FFFFFF" cx="15.4" cy="33.2" r="0.5"/>
	<circle fill="#FFFFFF" cx="21.7" cy="35.1" r="0.5"/>
	<circle fill="#FFFFFF" cx="23" cy="40" r="0.5"/>
	<circle fill="#FFFFFF" cx="14.5" cy="14.5" r="0.5"/>
	<circle fill="#FFFFFF" cx="17.4" cy="14.8" r="0.5"/>
	<circle fill="#FFFFFF" cx="37" cy="15.3" r="0.5"/>
	<circle fill="#FFFFFF" cx="33.6" cy="23.8" r="0.5"/>
	<circle fill="#FFFFFF" cx="18.4" cy="5.6" r="0.5"/>
	<circle fill="#032828" cx="14.3" cy="23.6" r="0.5"/>
	<circle fill="#032828" cx="10.9" cy="15" r="0.5"/>
	<circle fill="#032828" cx="29.6" cy="5.9" r="0.5"/>
	<circle fill="#032828" cx="30.6" cy="15" r="0.5"/>
	<circle fill="#032828" cx="29.8" cy="24.5" r="0.5"/>
	<circle fill="#032828" cx="32.6" cy="33.4" r="0.5"/>
	<circle fill="#032828" cx="29.5" cy="37.7" r="0.5"/>
	<circle fill="#032828" cx="33.5" cy="14.8" r="0.5"/>
	<circle fill="#032828" cx="25.1" cy="47.3" r="0.5"/>
	<path fill="#FFFFFF" d="M18.1,5.3V6h-6.4c0,0-1.7,0-1.9,1.7c0,0,0,1.7,1.8,1.7h6.6c0,0,3.2-0.3,3.2,2.7c0,0,0.4,3-3.7,3v-0.7
		c0,0,3,0.3,2.9-2.3c0,0,0-2.1-2.5-2.1l-6.4,0c0,0-2.5,0.1-2.7-2.5c0,0-0.1-2.1,2.4-2.3L18.1,5.3z"/>
	<path fill="#FFFFFF" d="M23.4,39.7h-0.8V5.1c0,0-0.3-3.9-4.6-4c0,0-4-0.1-4.6,4.2v0.6l-0.7-0.1l0-0.4c0,0,0.5-4.7,5.4-4.8
		c0,0,5-0.2,5.4,4.3L23.4,39.7z"/>
	<path fill="#FFFFFF" d="M14.2,14.2v0.7c0,0-1.9-0.1-1.9,2.1c0,0,0.1,1.5,1.8,1.7h6.1c0,0,2.1-0.1,2.7,1.2L22.8,21
		c0,0-0.7-1.7-2.3-1.7l-6.6,0c0,0-2.4-0.1-2.4-2.5C11.5,16.8,11.3,14.5,14.2,14.2z"/>
	<path fill="#FFFFFF" d="M18.6,23.9v0.7c0,0,2,0.1,2,2c0,0,0.1,1.7-1.9,1.8h-6.4c0,0-2.8-0.3-2.9,2.7c0,0,0,2.3,2.5,2.4h1.4
		c0,0-1.6,1.4-0.3,3.5c0,0,0.6,0.9,2.1,0.8h4.5c0,0,2.2,0,2.5-2.5h-0.7c0,0,0,1.6-1.8,1.7h-4.4c0,0-2.1,0.2-2-1.8
		c0,0-0.1-1.7,1.9-1.9v-0.7H12c0,0-1.8,0-1.9-1.8c0,0-0.1-2,2-1.9h6.5c0,0,2.5,0,2.6-2.5C21.2,26.6,21.5,24.2,18.6,23.9z"/>
	<path fill="#FFFFFF" d="M37.2,10c0,0,4.3,0.7,4.2,5.6c0,0,2.2,1.4,2.2,4c0,0,0,1.9-1.4,3.2c0,0,0.2,4.5-4.6,6.2L37,29.2l-1.2-0.6
		c0,0,4.8-0.3,5.6-5.2c0,0-0.8,0.8-3.4,0.7H34v-0.7h4c0,0,4.7,0.3,4.9-4.1c0,0-0.2-3.6-3.8-3.8h-1.7v-0.7h1.2c0,0,1.4,0,2.1,0.3
		c0,0,0.4-4-4.4-4.9l-0.9-0.1L37.2,10z"/>
	<path fill="#032828" d="M29.9,5.5v0.7h6.4c0,0,1.7,0,1.9,1.7c0,0,0,1.7-1.8,1.7h-6.6c0,0-3.2-0.3-3.2,2.7c0,0-0.4,3,3.7,3v-0.7
		c0,0-3,0.3-2.9-2.3c0,0,0-2.1,2.5-2.1l6.4,0c0,0,2.5,0.1,2.7-2.5c0,0,0.1-2.1-2.4-2.3L29.9,5.5z"/>
	<path fill="#032828" d="M24.6,43.3h0.8v-38c0,0,0.3-3.9,4.6-4c0,0,4-0.1,4.6,4.2v0.6L35.3,6l0-0.4c0,0-0.5-4.7-5.4-4.8
		c0,0-5-0.2-5.4,4.3L24.6,43.3z"/>
	<path fill="#032828" d="M33.8,14.4v0.7c0,0,1.9-0.1,1.9,2.1c0,0-0.1,1.5-1.8,1.7h-6.1c0,0-2.1-0.1-2.7,1.2l0.1,1.1
		c0,0,0.7-1.7,2.3-1.7l6.6,0c0,0,2.4-0.1,2.4-2.5C36.5,17.1,36.7,14.8,33.8,14.4z"/>
	<path fill="#032828" d="M35.8,28.6h-6.4c-2-0.1-1.9-1.8-1.9-1.8c0-1.9,2-2,2-2v-0.7c-2.9,0.3-2.6,2.7-2.6,2.7
		c0.1,2.5,2.6,2.5,2.6,2.5H36c2-0.1,2,1.9,2,1.9c-0.1,1.8-1.9,1.8-1.9,1.8h-3.2v0.7c1.9,0.1,1.9,1.9,1.9,1.9c0.1,2-2,1.8-2,1.8h-3
		v0.7h3.1c1.5,0.1,2.1-0.8,2.1-0.8c1.4-2.1-0.3-3.5-0.3-3.5h1.4c2.6-0.1,2.5-2.4,2.5-2.4C38.6,28.4,35.8,28.6,35.8,28.6z"/>
</g>
</svg>
