<?xml version="1.0" encoding="utf-8"?>
<!-- Generator: Adobe Illustrator 18.0.0, SVG Export Plug-In . SVG Version: 6.00 Build 0)  -->
<!DOCTYPE svg PUBLIC "-//W3C//DTD SVG 1.1//EN" "http://www.w3.org/Graphics/SVG/1.1/DTD/svg11.dtd">
<svg version="1.1" id="Layer_1" xmlns="http://www.w3.org/2000/svg" xmlns:xlink="http://www.w3.org/1999/xlink" x="0px" y="0px"
	 viewBox="0 0 1024 535" enable-background="new 0 0 1024 535" xml:space="preserve">
<g>
	<rect x="90.9" y="84.7" fill="none" width="894.9" height="16.1"/>
	<text transform="matrix(1 0 0 1 90.9213 95.8721)" font-family="'TrebuchetMS'" font-size="15.0987">Revisão da literatura sobre mecanismos de pagamento de cuidados de saúde, critérios de avaliação e incentivos.</text>
	<rect x="87.9" y="24.3" width="57.6" height="23.5"/>
	<rect x="88.5" y="30.9" fill="none" width="56.8" height="12.6"/>
	<text transform="matrix(1 0 0 1 105.7773 39.6328)" fill="#FFFFFF" font-family="'TrebuchetMS-Bold'" font-size="11.7434">ABR</text>
	<rect x="204.2" y="24.3" width="57.6" height="23.5"/>
	<rect x="204.8" y="30.9" fill="none" width="56.8" height="12.6"/>
	<text transform="matrix(1 0 0 1 222.5282 39.6328)" fill="#FFFFFF" font-family="'TrebuchetMS-Bold'" font-size="11.7434">JUL</text>
	<rect x="321.2" y="24.3" width="57.6" height="23.5"/>
	<rect x="321.7" y="30.9" fill="none" width="56.8" height="12.6"/>
	<text transform="matrix(1 0 0 1 338.1235 39.6328)" fill="#FFFFFF" font-family="'TrebuchetMS-Bold'" font-size="11.7434">OUT</text>
	<rect x="437.9" y="24.3" width="57.6" height="23.5"/>
	<rect x="438.4" y="30.9" fill="none" width="56.8" height="12.6"/>
	<text transform="matrix(1 0 0 1 456.1523 39.6328)" fill="#FFFFFF" font-family="'TrebuchetMS-Bold'" font-size="11.7434">DEZ</text>
	<rect x="555.1" y="24.3" width="57.6" height="23.5"/>
	<rect x="555.6" y="30.9" fill="none" width="56.8" height="12.6"/>
	<text transform="matrix(1 0 0 1 572.0302 39.6328)" fill="#FFFFFF" font-family="'TrebuchetMS-Bold'" font-size="11.7434">MAR</text>
	<rect x="379.5" y="24.3" fill="#00AAB4" width="57.6" height="23.5"/>
	<rect x="380.1" y="30.9" fill="none" width="56.8" height="12.6"/>
	<text transform="matrix(1 0 0 1 396.4911 39.6328)" fill="#FFFFFF" font-family="'TrebuchetMS-Bold'" font-size="11.7434">NOV</text>
	<rect x="496.4" y="24.3" fill="#00AAB4" width="57.6" height="23.5"/>
	<rect x="497" y="30.9" fill="none" width="56.8" height="12.6"/>
	<text transform="matrix(1 0 0 1 514.6601 39.6328)" fill="#FFFFFF" font-family="'TrebuchetMS-Bold'" font-size="11.7434">FEV</text>
	<rect x="613.6" y="24.3" fill="#00AAB4" width="57.6" height="23.5"/>
	<rect x="614.1" y="30.9" fill="none" width="56.8" height="12.6"/>
	<text transform="matrix(1 0 0 1 631.4316 39.6328)" fill="#FFFFFF" font-family="'TrebuchetMS-Bold'" font-size="11.7434">ABR</text>
	<rect x="671.8" y="24.3" width="57.6" height="23.5"/>
	<rect x="672.3" y="30.9" fill="none" width="56.8" height="12.6"/>
	<text transform="matrix(1 0 0 1 690.0869 39.6328)" fill="#FFFFFF" font-family="'TrebuchetMS-Bold'" font-size="11.7434">JUL</text>
	<rect x="730.5" y="24.3" fill="#00AAB4" width="57.6" height="23.5"/>
	<rect x="731.1" y="30.9" fill="none" width="56.8" height="12.6"/>
	<text transform="matrix(1 0 0 1 749.2568 39.6328)" fill="#FFFFFF" font-family="'TrebuchetMS-Bold'" font-size="11.7434">SET</text>
	<rect x="789.4" y="24.3" fill="#032828" width="57.6" height="23.5"/>
	<rect x="790" y="30.9" fill="none" width="56.8" height="12.6"/>
	<text transform="matrix(1 0 0 1 806.3876 39.6328)" fill="#FFFFFF" font-family="'TrebuchetMS-Bold'" font-size="11.7434">NOV</text>
	<rect x="906.4" y="24.3" fill="#032828" width="57.6" height="23.5"/>
	<rect x="906.9" y="30.9" fill="none" width="56.8" height="12.6"/>
	<text transform="matrix(1 0 0 1 923.3486 39.6328)" fill="#FFFFFF" font-family="'TrebuchetMS-Bold'" font-size="11.7434">MAR</text>
	<rect x="847.8" y="24.3" fill="#00AAB4" width="57.6" height="23.5"/>
	<rect x="848.3" y="30.9" fill="none" width="56.8" height="12.6"/>
	<text transform="matrix(1 0 0 1 866.0488 39.6328)" fill="#FFFFFF" font-family="'TrebuchetMS-Bold'" font-size="11.7434">DEZ</text>
	<rect x="964.7" y="24.3" fill="#00AAB4" width="57.6" height="23.5"/>
	<rect x="965.3" y="30.9" fill="none" width="56.8" height="12.6"/>
	<text transform="matrix(1 0 0 1 982.5937 39.6328)" fill="#FFFFFF" font-family="'TrebuchetMS-Bold'" font-size="11.7434">ABR</text>
	<rect x="145.9" y="24.3" fill="#00AAB4" width="57.6" height="23.5"/>
	<rect x="146.4" y="30.9" fill="none" width="56.8" height="12.6"/>
	<text transform="matrix(1 0 0 1 163.4897 39.6328)" fill="#FFFFFF" font-family="'TrebuchetMS-Bold'" font-size="11.7434">JUN </text>
	<rect x="262.6" y="24.3" fill="#00AAB4" width="57.6" height="23.5"/>
	<rect x="263.1" y="30.9" fill="none" width="56.8" height="12.6"/>
	<text transform="matrix(1 0 0 1 281.312 39.6328)" fill="#FFFFFF" font-family="'TrebuchetMS-Bold'" font-size="11.7434">SET </text>
	<line fill="none" stroke="#00AAB4" stroke-miterlimit="10" x1="88.7" y1="17.6" x2="495.3" y2="17.6"/>
	<line fill="none" stroke="#00AAB4" stroke-miterlimit="10" x1="904.9" y1="17.6" x2="1021.4" y2="17.6"/>
	<line fill="none" stroke="#032828" stroke-miterlimit="10" x1="494.7" y1="17.6" x2="904.7" y2="17.6"/>
	<rect x="88.4" y="3.4" fill="none" width="407.1" height="15.8"/>
	<text transform="matrix(1 0 0 1 279.0092 11.3413)" fill="#00AAB4" font-family="'TrebuchetMS-Bold'" font-size="10.6592">2015</text>
	<rect x="906.4" y="3.4" fill="none" width="116.5" height="14.3"/>
	<text transform="matrix(1 0 0 1 951.7294 11.3413)" fill="#00AAB4" font-family="'TrebuchetMS-Bold'" font-size="10.6592">2017</text>
	<rect x="497.1" y="3.4" fill="none" width="409" height="14.1"/>
	<text transform="matrix(1 0 0 1 688.7158 11.3979)" fill="#032828" font-family="'TrebuchetMS-Bold'" font-size="10.6592">2016</text>
	<rect x="91.1" y="70.8" opacity="0.2" fill="#00AAB4" width="932.9" height="7.4"/>
	<rect x="117.9" y="71" opacity="0.89" fill="#00AAB4" width="85.7" height="7.4"/>
	<rect x="-35.6" y="71.3" fill="none" width="118.3" height="33.6"/>
	<text transform="matrix(1 0 0 1 15.811 80.0947)"><tspan x="0" y="0" font-family="'TrebuchetMS-Bold'" font-size="11.7434">15/04/2015</tspan><tspan x="-10.4" y="17.6" font-family="'TrebuchetMS-Bold'" font-size="11.7434">a 30/06/2015</tspan></text>
	<rect x="90.9" y="128.4" fill="none" width="894.9" height="22.6"/>
	<text transform="matrix(1 0 0 1 90.9213 139.4902)" font-family="'TrebuchetMS'" font-size="15.0987">Mapeamento e avaliação do atual modelo de pagamento dos cuidados de saúde mental em Potugal.</text>
	<rect x="91.1" y="114.5" opacity="0.2" fill="#00AAB4" width="932.9" height="7.4"/>
	<rect x="204" y="114.6" opacity="0.89" fill="#00AAB4" width="90.9" height="7.3"/>
	<rect x="-35.6" y="114.9" fill="none" width="118.3" height="33.6"/>
	<text transform="matrix(1 0 0 1 15.811 123.7139)"><tspan x="0" y="0" font-family="'TrebuchetMS-Bold'" font-size="11.7434">01/07/2015</tspan><tspan x="-10.4" y="17.6" font-family="'TrebuchetMS-Bold'" font-size="11.7434">a 15/09/2015</tspan></text>
	<rect x="90.9" y="172" fill="none" width="894.9" height="22.6"/>
	<text transform="matrix(1 0 0 1 90.9213 183.1084)" font-family="'TrebuchetMS'" font-size="15.0987">Discussão do mapeamento e avaliação com parceiros do projeto e outros especialistas.</text>
	<rect x="91.1" y="158.1" opacity="0.2" fill="#00AAB4" width="932.9" height="7.4"/>
	<rect x="294.9" y="158" opacity="0.89" fill="#00AAB4" width="25.2" height="7.5"/>
	<rect x="-35.6" y="158.6" fill="none" width="118.3" height="33.6"/>
	<text transform="matrix(1 0 0 1 15.811 167.332)"><tspan x="0" y="0" font-family="'TrebuchetMS-Bold'" font-size="11.7434">16/09/2015</tspan><tspan x="-10.4" y="17.6" font-family="'TrebuchetMS-Bold'" font-size="11.7434">a 30/09/2015</tspan></text>
	<rect x="90.9" y="215.6" fill="none" width="894.9" height="22.6"/>
	<text transform="matrix(1 0 0 1 90.9213 226.7266)" font-family="'TrebuchetMS'" font-size="15.0987">Revisão da literatura sobre mecanismos de pagamento de cuidados de saúde mental utilizados noutros países.</text>
	<rect x="91.1" y="201.7" opacity="0.2" fill="#00AAB4" width="932.9" height="7.4"/>
	<rect x="319.6" y="202.2" opacity="0.89" fill="#00AAB4" width="117.3" height="7"/>
	<rect x="-35.6" y="202.2" fill="none" width="118.3" height="33.6"/>
	<text transform="matrix(1 0 0 1 15.811 210.9502)"><tspan x="0" y="0" font-family="'TrebuchetMS-Bold'" font-size="11.7434">01/10/2015</tspan><tspan x="-10.4" y="17.6" font-family="'TrebuchetMS-Bold'" font-size="11.7434">a 30/11/2015</tspan></text>
	<rect x="90.9" y="257.5" fill="none" width="894.9" height="22.6"/>
	<text transform="matrix(1 0 0 1 90.9213 268.668)" font-family="'TrebuchetMS'" font-size="15.0987">Recolha de dados relativos à utilização de recursos no tratamento de perturbações de saúde mental em Portugal</text>
	<rect x="91.1" y="243.6" opacity="0.2" fill="#00AAB4" width="932.9" height="7.4"/>
	<rect x="354.9" y="244.1" opacity="0.89" fill="#00AAB4" width="434.4" height="7"/>
	<rect x="-35.6" y="244.1" fill="none" width="118.3" height="33.6"/>
	<text transform="matrix(1 0 0 1 15.811 252.8916)"><tspan x="0" y="0" font-family="'TrebuchetMS-Bold'" font-size="11.7434">16/10/2015</tspan><tspan x="-10.4" y="17.6" font-family="'TrebuchetMS-Bold'" font-size="11.7434">a 30/09/2016</tspan></text>
	<rect x="90.9" y="300.3" fill="none" width="894.9" height="22.6"/>
	<text transform="matrix(1 0 0 1 90.9213 311.4473)" font-family="'TrebuchetMS'" font-size="15.0987">Recolha de dados relativos à utilização de recursos no tratamento de perturbações de saúde mental em Portugal</text>
	<rect x="91.1" y="286.4" opacity="0.2" fill="#00AAB4" width="932.9" height="7.4"/>
	<rect x="437.1" y="286.9" opacity="0.89" fill="#00AAB4" width="92.1" height="7"/>
	<rect x="-35.6" y="286.9" fill="none" width="118.3" height="33.6"/>
	<text transform="matrix(1 0 0 1 15.811 295.6709)"><tspan x="0" y="0" font-family="'TrebuchetMS-Bold'" font-size="11.7434">01/12/2015</tspan><tspan x="-10.4" y="17.6" font-family="'TrebuchetMS-Bold'" font-size="11.7434">a 15/02/2016</tspan></text>
	<rect x="90.9" y="343.1" fill="none" width="919.5" height="16.8"/>
	<text transform="matrix(1 0 0 1 90.9213 354.2275)" font-family="'TrebuchetMS'" font-size="15.0987">Estudo teórico sobre mecanismos de pagamento de cuidados de saúde mental quando a não adesão ao tratamento é possível.</text>
	<rect x="91.1" y="329.2" opacity="0.2" fill="#00AAB4" width="932.9" height="7.4"/>
	<rect x="494.9" y="329.7" opacity="0.89" fill="#00AAB4" width="234.7" height="7"/>
	<rect x="-35.6" y="329.7" fill="none" width="118.3" height="33.6"/>
	<text transform="matrix(1 0 0 1 15.811 338.4512)"><tspan x="0" y="0" font-family="'TrebuchetMS-Bold'" font-size="11.7434">01/02/2016</tspan><tspan x="-10.4" y="17.6" font-family="'TrebuchetMS-Bold'" font-size="11.7434">a 31/07/2016</tspan></text>
	<rect x="90.9" y="386.7" fill="none" width="919.5" height="16.8"/>
	<text transform="matrix(1 0 0 1 90.9213 397.8457)" font-family="'TrebuchetMS'" font-size="15.0987">Discussão da proposta de um novo modelo com os parceiros do projeto e outros especialistas.</text>
	<rect x="91.1" y="372.8" opacity="0.2" fill="#00AAB4" width="932.9" height="7.4"/>
	<rect x="528.5" y="373.3" opacity="0.89" fill="#00AAB4" width="85.4" height="7"/>
	<rect x="-35.6" y="373.3" fill="none" width="118.3" height="33.6"/>
	<text transform="matrix(1 0 0 1 15.811 382.0693)"><tspan x="0" y="0" font-family="'TrebuchetMS-Bold'" font-size="11.7434">16/02/2016</tspan><tspan x="-10.4" y="17.6" font-family="'TrebuchetMS-Bold'" font-size="11.7434">a 31/03/2016</tspan></text>
	<rect x="90.9" y="429.5" fill="none" width="919.5" height="16.8"/>
	<text transform="matrix(1 0 0 1 90.9213 440.625)" font-family="'TrebuchetMS'" font-size="15.0987">Análise dos dados recolhidos.</text>
	<rect x="91.1" y="415.6" opacity="0.2" fill="#00AAB4" width="932.9" height="7.4"/>
	<rect x="613.9" y="416.1" opacity="0.89" fill="#00AAB4" width="233.3" height="7"/>
	<rect x="-35.6" y="416.1" fill="none" width="118.3" height="33.6"/>
	<text transform="matrix(1 0 0 1 15.811 424.8486)"><tspan x="0" y="0" font-family="'TrebuchetMS-Bold'" font-size="11.7434">01/04/2016</tspan><tspan x="-10.4" y="17.6" font-family="'TrebuchetMS-Bold'" font-size="11.7434">a 30/11/2016</tspan></text>
	<rect x="90.9" y="472.3" fill="none" width="919.5" height="16.8"/>
	<text transform="matrix(1 0 0 1 90.9213 483.4053)" font-family="'TrebuchetMS'" font-size="15.0987">Quantificação da proposta de um novo modelo </text>
	<rect x="91.1" y="458.4" opacity="0.2" fill="#00AAB4" width="932.9" height="7.4"/>
	<rect x="847.2" y="458.8" opacity="0.89" fill="#00AAB4" width="88.8" height="7"/>
	<rect x="-35.6" y="458.9" fill="none" width="118.3" height="33.6"/>
	<text transform="matrix(1 0 0 1 15.811 467.6289)"><tspan x="0" y="0" font-family="'TrebuchetMS-Bold'" font-size="11.7434">01/12/2016</tspan><tspan x="-10.4" y="17.6" font-family="'TrebuchetMS-Bold'" font-size="11.7434">a 15/03/2017</tspan></text>
	<rect x="90.9" y="516.7" fill="none" width="919.5" height="16.8"/>
	<text transform="matrix(1 0 0 1 90.9213 527.8623)" font-family="'TrebuchetMS'" font-size="15.0987">Discussão da proposta final com os parceiros do projeto e outros especialistas </text>
	<rect x="91.1" y="502.8" opacity="0.2" fill="#00AAB4" width="932.9" height="7.4"/>
	<rect x="936" y="503.3" opacity="0.89" fill="#00AAB4" width="87.4" height="7"/>
	<rect x="-35.6" y="503.3" fill="none" width="118.3" height="33.6"/>
	<text transform="matrix(1 0 0 1 15.811 512.0859)"><tspan x="0" y="0" font-family="'TrebuchetMS-Bold'" font-size="11.7434">16/03/2017</tspan><tspan x="-10.4" y="17.6" font-family="'TrebuchetMS-Bold'" font-size="11.7434">a 30/04/2017</tspan></text>
</g>
</svg>
